<svg xmlns="http://www.w3.org/2000/svg" viewBox="0 -0.5 16 16" shape-rendering="crispEdges">
  <path stroke="#4d4d67" d="M7 1h2M5 2h1M3 3h2M2 4h1M0 6h1M0 7h1m0 2h1m2 3h1"/>
  <path stroke="#413e54" d="M9 1h1m4 5h1m-1 5h1"/>
  <path stroke="#4f4d67" d="M6 2h1m-5 8h1"/>
  <path stroke="#cbccd4" d="M7 2h2M6 3h1m2 0h1M4 4h1m2 0h3m1 0h1M2 5h1m3 0h1m3 0h1M7 6h1m3 0h1m1 0h1m0 1h1m-8 5h1"/>
  <path stroke="#c9ccd4" d="M9 2h1"/>
  <path stroke="#403f54" d="M10 2h1M9 13h1"/>
  <path stroke="#cbcdd4" d="M5 3h1m2 0h1m1 1h1"/>
  <path stroke="#dedee3" d="M7 3h1"/>
  <path stroke="#cbced4" d="M10 3h1"/>
  <path stroke="#413f54" d="M11 3h1m3 4h1m-1 2h1m-7 2h1m2 1h1m-3 1h1m-4 1h2"/>
  <path stroke="#4d4f66" d="M1 4h1"/>
  <path stroke="#cbccd6" d="M3 4h1m1 0h1m6 1h1"/>
  <path stroke="#dfdfe2" d="M6 4h1"/>
  <path stroke="#413d54" d="M12 4h1"/>
  <path stroke="#4f4c67" d="M0 5h1"/>
  <path stroke="#dedfe3" d="M1 5h1m1 0h1m1 0h1m5 0h1m1 2h1M7 9h1"/>
  <path stroke="#dfdde3" d="M4 5h1"/>
  <path stroke="#2d69e1" d="M7 5h1M3 6h3M2 7h1m3 0h1m0 1h1m4 2h1"/>
  <path stroke="#2d69e0" d="M8 5h1m1 1h1m0 1h1"/>
  <path stroke="#2f6be1" d="M9 5h1"/>
  <path stroke="#413d55" d="M13 5h1"/>
  <path stroke="#9b9db6" d="M1 6h1"/>
  <path stroke="#2c69e1" d="M2 6h1m8 4h1"/>
  <path stroke="#dedfe1" d="M6 6h1"/>
  <path stroke="#3894ff" d="M8 6h2M4 7h1m4 0h1M3 9h1m0 1h1"/>
  <path stroke="#dedde1" d="M12 6h1"/>
  <path stroke="#9a9fb4" d="M1 7h1m1 3h1m5 0h1m-2 2h1m-3 1h1"/>
  <path stroke="#40c1ff" d="M3 7h1m6 0h1M4 8h1m6 0h1"/>
  <path stroke="#3894fd" d="M5 7h1"/>
  <path stroke="#dcdfe2" d="M7 7h1m0 2h1"/>
  <path stroke="#c9ccd5" d="M8 7h1"/>
  <path stroke="#c9ced4" d="M12 7h1"/>
  <path stroke="#4c4d67" d="M0 8h1"/>
  <path stroke="#9a9eb4" d="M1 8h1m0 1h1m1 2h1"/>
  <path stroke="#2d69e3" d="M2 8h2m8 0h1M4 9h1m7 0h1"/>
  <path stroke="#3895ff" d="M5 8h1"/>
  <path stroke="#3a94ff" d="M6 8h1"/>
  <path stroke="#dcdfe3" d="M8 8h1"/>
  <path stroke="#dcdfe1" d="M9 8h1"/>
  <path stroke="#3894fe" d="M10 8h1"/>
  <path stroke="#696d88" d="M13 8h1m0 1h1m-2 1h2m-5 2h1"/>
  <path stroke="#6b6d89" d="M14 8h1"/>
  <path stroke="#413e56" d="M15 8h1"/>
  <path stroke="#f2f2f3" d="M5 9h1m0 1h1"/>
  <path stroke="#dfdfe3" d="M6 9h1"/>
  <path stroke="#f3f3f2" d="M9 9h1"/>
  <path stroke="#f2f2f2" d="M10 9h1"/>
  <path stroke="#3896ff" d="M11 9h1"/>
  <path stroke="#878fa5" d="M13 9h1m-4 2h1m-3 2h1"/>
  <path stroke="#adb0c4" d="M5 10h1"/>
  <path stroke="#f2f0f2" d="M7 10h1"/>
  <path stroke="#f2f2f0" d="M8 10h1"/>
  <path stroke="#868fa7" d="M10 10h1"/>
  <path stroke="#403e54" d="M15 10h1"/>
  <path stroke="#4d4f67" d="M3 11h1"/>
  <path stroke="#adb2c5" d="M5 11h1"/>
  <path stroke="#adb1c4" d="M6 11h1"/>
  <path stroke="#cbccd5" d="M7 11h1"/>
  <path stroke="#9a9fb5" d="M8 11h1"/>
  <path stroke="#6b6d88" d="M11 11h1"/>
  <path stroke="#696c8a" d="M12 11h1"/>
  <path stroke="#413e55" d="M13 11h1m-3 1h1"/>
  <path stroke="#989fb5" d="M5 12h1"/>
  <path stroke="#adb0c6" d="M6 12h1"/>
  <path stroke="#878ea5" d="M9 12h1"/>
  <path stroke="#4d4d65" d="M5 13h1m0 1h1"/>
  <path stroke="#acb0c4" d="M7 13h1"/>
</svg>
